# xmcd
# 
# Track frame offsets:
#     150
#     44463
#     82907
#     118394
#     165295
#     187615
#     233382
# 
# Disc length: 3750
# 
# Revision: 0
# Processed by: cddbd v1.5.2PL0 Copyright (c) Steve Scherf et al.
# Submitted via: fre:ac v1.0.17
# 
DISCID=430ea407
DTITLE=Harry Sweets Edison - Eddie Lockjaw Davis - But Beautiful
DYEAR=0
DGENRE=Blues
TTITLE0=Out of Nowhere
TTITLE1=Whispering
TTITLE2=My Funny Valentine
TTITLE3=I'll Remember April
TTITLE4=But Beautiful
TTITLE5=Satin Doll
TTITLE6=Shiny Stockings
EXTD=
EXTT0=
EXTT1=
EXTT2=
EXTT3=
EXTT4=
EXTT5=
EXTT6=
PLAYORDER=
